<?xml version="1.0"?>
<svg width="100" height="125" xmlns="http://www.w3.org/2000/svg" xmlns:svg="http://www.w3.org/2000/svg" enable-background="new 0 0 100 100" version="1.1" xml:space="preserve">

 <g class="layer">
  <title>Layer 1</title>
  <g display="none" id="svg_1">
   <path d="m94.94,32.25l-22.88,8.62l0,-7.87c0,-4.34 -3.53,-7.87 -7.87,-7.87l-51.25,0c-4.34,0 -7.88,3.53 -7.88,7.87l0,34c0,4.34 3.54,7.87 7.88,7.87l51.25,0c4.34,0 7.87,-3.53 7.87,-7.87l0,-7.63l22.88,8.35l0,-35.47zm-26.03,34.75c0,2.6 -2.12,4.72 -4.72,4.72l-51.25,0c-2.61,0 -4.73,-2.12 -4.73,-4.72l0,-34c0,-2.6 2.12,-4.72 4.73,-4.72l51.25,0c2.6,0 4.72,2.12 4.72,4.72l0,34zm22.88,-3.78l-19.57,-7.14l0,-11.91l19.57,-7.37l0,26.42z" display="inline" id="svg_2"/>
  </g>
  <g id="svg_3">
   <path d="m72.86,55.26c-3.84,0 -7.39,1.22 -10.3,3.29c-0.9,-1.43 -1.56,-2.63 -2.01,-3.48c0.69,-1.52 1.08,-3.2 1.08,-4.97c0,-1.85 -0.42,-3.6 -1.17,-5.17c0.6,-1.17 1.36,-2.38 2.21,-3.58c2.94,2.13 6.54,3.39 10.44,3.39c9.81,0 17.77,-7.96 17.77,-17.77s-7.95,-17.77 -17.77,-17.77c-9.81,0 -17.77,7.96 -17.77,17.77c0,3.89 1.25,7.49 3.37,10.41c-1.45,0.92 -2.69,1.61 -3.6,2.08c-1.63,-0.83 -3.47,-1.31 -5.43,-1.31c-1.6,0 -3.14,0.32 -4.54,0.9c-1.17,-0.52 -2.4,-1.21 -3.63,-1.99c1.98,-2.87 3.14,-6.34 3.14,-10.09c0,-9.81 -7.95,-17.77 -17.77,-17.77c-9.81,0 -17.76,7.96 -17.76,17.77s7.95,17.77 17.76,17.77c3.97,0 7.62,-1.3 10.58,-3.49c0.78,1.17 1.38,2.18 1.82,2.96c-0.98,1.74 -1.55,3.75 -1.55,5.89c0,1.76 0.38,3.43 1.06,4.93c-0.48,1.1 -1.11,2.23 -1.83,3.37c-2.86,-1.98 -6.33,-3.14 -10.08,-3.14c-9.81,0 -17.76,7.96 -17.76,17.77s7.95,17.77 17.76,17.77c9.82,0 17.77,-7.96 17.77,-17.77c0,-3.94 -1.28,-7.58 -3.45,-10.52c1.17,-0.78 2.18,-1.38 2.94,-1.82c1.66,0.87 3.54,1.36 5.54,1.36c2.01,0 3.91,-0.5 5.57,-1.38c1.06,0.54 2.14,1.2 3.22,1.94c-2.12,2.93 -3.38,6.53 -3.38,10.42c0,9.81 7.96,17.77 17.77,17.77s17.77,-7.96 17.77,-17.77s-7.95,-17.77 -17.77,-17.77zm-45.97,-12.64c-8.65,0 -15.65,-7.01 -15.65,-15.65s7,-15.65 15.65,-15.65c8.64,0 15.65,7.01 15.65,15.65c0,3.31 -1.03,6.37 -2.78,8.9c-3.73,-2.65 -7.26,-5.94 -9.21,-7.85c0.09,-0.34 0.15,-0.69 0.15,-1.05c0,-0.62 -0.15,-1.2 -0.42,-1.72c1.04,-0.57 2.41,-1.62 3.77,-2.95c2.44,-2.41 3.95,-4.83 3.37,-5.42c-0.58,-0.59 -3.03,0.88 -5.47,3.29c-1.32,1.3 -2.37,2.6 -2.96,3.62c-0.61,-0.4 -1.33,-0.63 -2.1,-0.63c-2.11,0 -3.81,1.71 -3.81,3.81c0,0.62 0.15,1.2 0.41,1.72c-1.04,0.57 -2.39,1.61 -3.73,2.94c-2.45,2.4 -3.96,4.83 -3.38,5.41c0.58,0.59 3.03,-0.88 5.47,-3.28c1.31,-1.29 2.35,-2.59 2.95,-3.6c0.6,0.39 1.31,0.62 2.09,0.62c0.44,0 0.87,-0.08 1.26,-0.22c3.5,3.11 6.18,6.29 8.1,8.95c-2.61,1.96 -5.85,3.11 -9.36,3.11zm0.88,-15.7c0,0.47 -0.38,0.86 -0.85,0.86s-0.86,-0.39 -0.86,-0.86s0.38,-0.86 0.86,-0.86s0.85,0.39 0.85,0.86zm14.77,46.11c0,8.64 -7.01,15.65 -15.65,15.65c-8.65,0 -15.65,-7.01 -15.65,-15.65c0,-8.64 7,-15.65 15.65,-15.65c3.31,0 6.38,1.03 8.9,2.78c-2.59,3.7 -5.82,7.22 -7.77,9.23c-0.36,-0.11 -0.74,-0.17 -1.13,-0.17c-0.7,0 -1.36,0.19 -1.92,0.52c-0.61,-1.02 -1.8,-2.4 -3.32,-3.75c-2.57,-2.28 -5.09,-3.62 -5.64,-3c-0.54,0.61 1.09,2.96 3.65,5.23c1.47,1.3 2.92,2.3 3.99,2.8c-0.36,0.58 -0.57,1.27 -0.57,2.01c0,2.1 1.7,3.81 3.81,3.81c0.72,0 1.4,-0.21 1.98,-0.56c0.65,0.97 1.73,2.16 3.05,3.33c2.56,2.28 5.09,3.62 5.63,3s-1.08,-2.96 -3.65,-5.23c-1.3,-1.16 -2.6,-2.08 -3.62,-2.61c0.26,-0.53 0.42,-1.11 0.42,-1.74c0,-0.42 -0.07,-0.82 -0.2,-1.19c3.12,-3.52 6.31,-6.2 8.97,-8.13c1.93,2.61 3.07,5.83 3.07,9.32zm-14.72,-0.06c0,0.47 -0.39,0.85 -0.86,0.85c-0.48,0 -0.86,-0.38 -0.86,-0.85s0.38,-0.86 0.86,-0.86c0.47,0 0.86,0.38 0.86,0.86zm29.64,-46c0,-8.64 7.01,-15.65 15.65,-15.65c8.65,0 15.65,7.01 15.65,15.65s-7,15.65 -15.65,15.65c-3.42,0 -6.59,-1.1 -9.17,-2.97c2.97,-3.8 6.53,-7.3 8.3,-8.97c0.28,0.06 0.57,0.1 0.87,0.1c0.83,0 1.59,-0.27 2.22,-0.71c0.66,0.98 1.8,2.22 3.23,3.44c2.61,2.22 5.16,3.52 5.69,2.89c0.54,-0.63 -1.14,-2.94 -3.75,-5.17c-1.44,-1.22 -2.86,-2.17 -3.93,-2.66c0.22,-0.49 0.35,-1.03 0.35,-1.6c0,-2.1 -1.71,-3.81 -3.81,-3.81c-0.65,0 -1.26,0.16 -1.79,0.45c-0.65,-0.99 -1.83,-2.27 -3.3,-3.53c-2.6,-2.22 -5.15,-3.52 -5.69,-2.89c-0.53,0.63 1.15,2.94 3.75,5.17c1.38,1.17 2.74,2.09 3.8,2.6c-0.37,0.58 -0.58,1.27 -0.58,2.01c0,0.49 0.1,0.96 0.27,1.4c-3.15,3.38 -6.36,5.96 -9.09,7.84c-1.9,-2.59 -3.02,-5.78 -3.02,-9.24zm14.82,-0.05c0,-0.47 0.39,-0.86 0.86,-0.86s0.86,0.39 0.86,0.86s-0.39,0.86 -0.86,0.86s-0.86,-0.39 -0.86,-0.86zm0.58,61.76c-8.64,0 -15.65,-7.01 -15.65,-15.65c0,-3.43 1.11,-6.61 2.98,-9.19c3.71,2.81 7.17,6.22 9.02,8.13c-0.1,0.34 -0.15,0.69 -0.15,1.06c0,0.65 0.16,1.27 0.45,1.8c-1.01,0.61 -2.28,1.64 -3.55,2.94c-2.4,2.45 -3.86,4.91 -3.27,5.48c0.59,0.58 3.01,-0.94 5.41,-3.39c1.24,-1.27 2.23,-2.55 2.81,-3.56c0.57,0.34 1.24,0.54 1.95,0.54c2.11,0 3.81,-1.71 3.81,-3.81c0,-0.64 -0.16,-1.24 -0.44,-1.77c1.05,-0.57 2.44,-1.68 3.83,-3.1c2.39,-2.45 3.86,-4.9 3.27,-5.48c-0.59,-0.58 -3.01,0.94 -5.41,3.4c-1.34,1.36 -2.38,2.74 -2.94,3.78c-0.61,-0.4 -1.33,-0.64 -2.12,-0.64c-0.43,0 -0.85,0.07 -1.24,0.21c-3.42,-3.17 -6.01,-6.41 -7.88,-9.11c2.56,-1.85 5.72,-2.94 9.12,-2.94c8.65,0 15.65,7.01 15.65,15.65c0.01,8.64 -7,15.65 -15.65,15.65zm-0.88,-15.65c0,-0.47 0.38,-0.85 0.86,-0.85c0.47,0 0.85,0.38 0.85,0.85c0,0.48 -0.38,0.86 -0.85,0.86c-0.48,0 -0.86,-0.38 -0.86,-0.86z" id="svg_4"/>
  </g>
 </g>
</svg>