<?xml version="1.0"?>
<svg width="100" height="125" xmlns="http://www.w3.org/2000/svg" xmlns:svg="http://www.w3.org/2000/svg" enable-background="new 0 0 100 100" version="1.1" xml:space="preserve">

 <g class="layer">
  <title>Layer 1</title>
  <g id="svg_1">
   <path d="m63.4,54.7c0.6,0.8 1.1,1.6 1.6,2.3c2.2,3.3 3.5,7 4,11c0.2,1.5 0.1,3 0.1,4.5c0,2.8 0,5.6 0,8.4c0,1.1 -0.5,1.7 -1.4,2c-1.1,0.3 -2.1,-0.5 -2.1,-1.7c0,-0.9 0,-1.9 0,-2.8c0,-2.9 0.1,-5.7 0,-8.6c-0.1,-4.7 -2,-8.5 -5.5,-11.7c-0.1,-0.1 -0.2,-0.2 -0.3,-0.2c0,0 -0.1,0 -0.1,0c0,0.5 0,1 -0.2,1.5c-0.4,1.8 -1.5,2.7 -3.3,2.7c-1.1,0 -2.3,0 -3.4,0c-0.4,0 -0.6,0.1 -0.6,0.6c0,0.7 0,1.3 0,2c0,0.4 0.2,0.6 0.6,0.6c0.5,0 0.9,0 1.4,0c0.7,0 1.1,0.4 1.1,1c0,1.4 0.1,2.8 0,4.2c0,0.6 -0.4,0.9 -1,1c-0.5,0 -0.9,0 -1.4,0c-0.4,0 -0.8,0.1 -1,0.5c-0.2,0.4 -0.6,0.5 -1,0.5c-0.7,0 -1.4,0 -2.1,0c-0.3,0 -0.6,-0.2 -0.7,-0.4c-0.3,-0.4 -0.7,-0.6 -1.2,-0.6c-0.4,0 -0.8,0 -1.2,0c-0.6,0 -1,-0.4 -1,-1c0,-1.4 0,-2.9 0,-4.3c0,-0.6 0.4,-1 1,-1c0.5,0 1,0 1.4,0c0.5,0 0.7,-0.2 0.7,-0.7c0,-0.7 0,-1.4 0,-2.1c0,-0.4 -0.2,-0.5 -0.5,-0.5c-1.1,0 -2.2,0 -3.3,0c-2.3,0 -3.5,-1.1 -3.6,-3.5c0,-0.2 0,-0.5 0,-0.8c-0.3,0.3 -0.5,0.4 -0.7,0.6c-3.4,3.3 -5.2,7.3 -5.2,12.1c0,3.5 0,7 0,10.5c0,1.3 -1.1,2.2 -2.3,1.8c-0.8,-0.2 -1.3,-0.9 -1.3,-1.8c0,-1.9 0,-3.8 0,-5.6c0,-2.2 0,-4.4 0.1,-6.6c0.2,-3.6 1.3,-7 3.1,-10.2c0.8,-1.3 1.6,-2.6 2.4,-3.9c-0.1,0 -0.2,0 -0.4,0c-3.1,0 -6.2,0 -9.2,0c-0.3,0 -0.5,0.1 -0.6,0.4c-1.4,2.8 -4.7,2.9 -6.5,1.7c-1.2,-0.6 -1.8,-1.7 -1.8,-3c0,-2.7 0,-5.4 0,-8.1c0,-0.9 0.4,-1.5 1.2,-1.8c1.2,-0.4 2.5,-0.6 3.8,-0.5c1.2,0.1 2.5,0.1 3.7,-0.1c2,-0.3 4,-0.8 5.9,-1.2c0.4,-0.1 0.7,0 1.1,0.2c1.2,0.9 2.4,1.7 3.7,2.6c-3.6,1 -7.3,1.4 -11,1.5c0,1.2 0,2.4 0,3.7c1.2,-0.2 2.3,-0.4 3.5,-0.6c3.3,-0.6 6.5,-1.2 9.8,-1.8c0.4,-0.1 0.5,-0.2 0.5,-0.6c0,-0.9 0,-1.8 0,-2.7c0,-0.6 -0.2,-1 -0.6,-1.3c-1.1,-0.9 -2.3,-1.8 -3.4,-2.7c-2.1,-1.7 -4.3,-3.3 -6.5,-4.9c-0.3,-0.2 -0.6,-0.3 -1,-0.3c-1.8,0.2 -3.3,-0.3 -4.3,-1.9c-0.3,-0.4 -0.4,-1 -0.4,-1.5c-0.1,-1.8 0,-3.7 -0.1,-5.5c0,-0.6 0.3,-1.1 0.8,-1.3c2.2,-1 4.4,-1 6.5,0c0.7,0.3 1,0.9 1,1.7c0,1.6 0,3.1 0,4.8c0.5,0.1 1,0.2 1.4,0.3c3.7,0.7 7.4,1.5 11.2,2.2c0.4,0.1 0.9,0.1 1.3,0.1c0.6,0 1.2,0 1.9,0c0,0.2 0,0.3 0,0.4c0,7.1 0,14.1 0,21.2c0,0.7 0.2,1.1 0.7,1.2c0.8,0.2 1.3,-0.3 1.3,-1.1c0,-1.6 0,-3.2 0,-4.9c0,-5.4 0,-10.8 0,-16.2c0,-0.2 0,-0.4 0,-0.6c0.3,0 0.5,0 0.7,0c1.5,0 3,0.1 4.5,-0.1c4,-0.7 7.9,-1.5 11.9,-2.3c0.1,0 0.2,-0.1 0.4,-0.1c0,-0.7 0,-1.4 0,-2.1c0,-0.9 0,-1.8 0,-2.7c0,-0.7 0.3,-1.2 0.9,-1.5c2.2,-1 4.3,-1.1 6.5,-0.1c0.7,0.3 1,0.9 1,1.6c0,1.6 0,3.2 0,4.8c0,2.5 -1.7,4.2 -4.2,4c-0.9,-0.1 -1.6,0.2 -2.3,0.7c-3.1,2.4 -6.2,4.7 -9.3,7.1c-0.4,0.3 -0.5,0.6 -0.5,1c0,1.1 0,2.3 0,3.5c4.6,0.8 9.1,1.6 13.7,2.4c0,-1.2 0,-2.4 0,-3.6c-1.8,-0.2 -3.7,-0.3 -5.5,-0.5c-1.8,-0.2 -3.6,-0.6 -5.4,-1c0,0 0,-0.1 0,-0.1c1,-0.7 2,-1.4 3,-2.1c0.8,-0.6 1.4,-0.8 2.4,-0.5c2.6,0.8 5.3,1.1 8,1.3c0.2,0 0.4,0 0.6,0c1.4,-0.4 2.8,-0.1 4.1,0.4c0.9,0.3 1.2,0.8 1.2,1.8c0,2.6 0,5.3 0,7.9c0.1,2.5 -1.8,3.8 -3.6,4.1c-2,0.3 -3.6,-0.5 -4.6,-2.3c-0.1,-0.2 -0.3,-0.4 -0.5,-0.4c-3,-0.4 -6.3,-0.4 -9.6,-0.4zm-11,-8.2c0,0 0,0 0,0c0,2 0,3.9 0,5.9c0,0.6 0.4,1 1,1c0.6,0 1,-0.4 1,-1c0,-3.9 0,-7.7 0,-11.6c0,-0.3 -0.2,-0.7 -0.4,-0.8c-0.3,-0.2 -0.8,-0.2 -1,-0.1c-0.3,0.1 -0.5,0.6 -0.5,0.9c-0.2,1.9 -0.1,3.8 -0.1,5.7zm-2.5,23.9c1.1,0 2.1,-0.9 2.1,-2c0,-1 -1,-2 -2,-2c-1,0 -2,0.9 -2,2c-0.1,1.1 0.8,2 1.9,2z" id="svg_2"/>
   <path d="m73.8,20.1c0,0.9 0,1.8 0,2.7c-1.3,-0.7 -2.6,-0.8 -3.9,0c0,-0.9 0,-1.8 0,-2.6c-0.1,0 -0.2,-0.1 -0.3,-0.1c-3.4,0.1 -6.8,0.4 -10,1.8c-0.6,0.2 -1.1,0.5 -1.6,0.9c-0.8,0.6 -0.8,1.2 0,1.8c0.9,0.7 2,1.1 3.1,1.4c1.1,0.3 2.2,0.5 3.4,0.8c0,0.8 0,1.6 0,2.5c-2.8,-0.5 -5.6,-0.9 -8,-2.4c-0.5,-0.3 -1,-0.7 -1.3,-1.2c-1.1,-1.3 -1.1,-3 0.1,-4.3c1,-1.1 2.3,-1.7 3.7,-2.2c3.2,-1.2 6.5,-1.8 9.8,-2c2.8,-0.1 5.6,-0.1 8.4,0.1c3.4,0.2 6.7,0.9 9.8,2.4c1.2,0.5 2.2,1.2 2.9,2.4c0.6,1.1 0.5,2.2 -0.3,3.2c-0.5,0.6 -1,1.1 -1.7,1.4c-2.8,1.6 -5.8,2.1 -8.9,2.7c0,-0.9 0,-1.7 0,-2.6c1.4,-0.3 2.8,-0.6 4.2,-1c1.1,-0.4 2.3,-0.9 3.3,-1.5c0.9,-0.5 0.9,-1.1 0,-1.7c-1.4,-0.9 -2.9,-1.4 -4.5,-1.7c-2.6,-0.6 -5.2,-0.8 -7.9,-0.8c0,0 -0.1,0 -0.3,0z" id="svg_3"/>
   <path d="m35.3,29.3c0,-0.9 0,-1.7 0,-2.5c0.7,-0.1 1.5,-0.3 2.2,-0.4c1.4,-0.3 2.7,-0.7 3.9,-1.5c1.4,-0.9 1.4,-1.7 -0.1,-2.5c-2,-1 -4.1,-1.5 -6.2,-1.9c-1.5,-0.2 -2.9,-0.3 -4.4,-0.4c-0.2,0 -0.3,0 -0.6,0c0,0.9 0,1.8 0,2.8c-1.3,-0.8 -2.5,-0.9 -3.9,-0.1c0,-0.9 0,-1.8 0,-2.7c-0.4,0 -0.8,0 -1.1,0c-3,0 -5.9,0.3 -8.8,1.2c-0.9,0.3 -1.7,0.7 -2.5,1c-0.2,0.1 -0.4,0.2 -0.6,0.4c-0.7,0.6 -0.8,1 0,1.6c0.7,0.5 1.5,1 2.4,1.2c1.7,0.5 3.4,0.9 5.2,1.4c0,0.7 0,1.5 0,2.4c-0.8,-0.1 -1.7,-0.3 -2.5,-0.4c-1.8,-0.3 -3.6,-0.8 -5.3,-1.6c-1.1,-0.5 -2.1,-1.2 -2.8,-2.2c-0.8,-1.2 -0.7,-2.4 0.2,-3.5c0.9,-1.1 2.1,-1.7 3.4,-2.3c2.7,-1.2 5.6,-1.7 8.5,-2c4.1,-0.4 8.2,-0.4 12.3,0.3c2.7,0.4 5.4,1 7.9,2.4c0.7,0.4 1.3,0.8 1.9,1.3c1.5,1.3 1.5,3.1 0.2,4.6c-0.8,0.8 -1.7,1.4 -2.8,1.8c-1.8,0.7 -3.6,1.1 -5.4,1.4c-0.4,0 -0.7,0.1 -1.1,0.2z" id="svg_4"/>
   <path d="m15,47.8c-1.8,-0.4 -3.5,-0.7 -5.1,-1.4c-1.1,-0.5 -2.2,-1 -3,-1.9c-1.4,-1.5 -1.4,-3.1 0.1,-4.5c1.2,-1.2 2.8,-1.8 4.4,-2.2c2.3,-0.7 4.6,-1 7,-1.1c1.5,-0.1 3.1,-0.2 4.6,-0.3c0.2,0 0.5,0 0.7,0.2c1,1 2.3,1.3 3.6,1.3c0.6,0 1,0.2 1.5,0.5c0.8,0.7 1.6,1.3 2.6,2c-2.5,-0.3 -4.8,-0.6 -7.2,-0.9c0,1 0,1.9 0,2.9c-1.3,-0.8 -2.5,-0.9 -3.8,-0.1c0,-0.9 0,-1.7 0,-2.6c-1.3,0.1 -2.5,0.2 -3.7,0.3c-2.1,0.2 -4.1,0.5 -6.1,1.3c-0.5,0.2 -1,0.5 -1.4,0.9c-0.5,0.4 -0.5,0.8 0,1.2c0.7,0.5 1.4,0.9 2.1,1.2c1.1,0.4 2.2,0.6 3.3,0.8c0.3,0.1 0.5,0.2 0.4,0.5c0,0.4 0,1.1 0,1.9z" id="svg_5"/>
   <path d="m84.9,47.8c0,-0.8 0,-1.5 0,-2.2c0,-0.3 0.1,-0.4 0.4,-0.5c1,-0.2 2.1,-0.4 3.1,-0.7c0.8,-0.3 1.6,-0.8 2.3,-1.2c0.6,-0.4 0.6,-0.8 0,-1.2c-0.6,-0.4 -1.3,-0.8 -2,-1.1c-2.2,-0.7 -4.4,-1 -6.7,-1.2c-0.8,-0.1 -1.5,-0.1 -2.4,-0.2c0,0.9 0,1.8 0,2.7c-1.3,-0.9 -2.5,-0.8 -3.8,0c0,-0.9 0,-1.8 0,-2.8c-2.5,0.3 -4.8,0.6 -7.3,0.9c1,-0.8 2,-1.6 3,-2.4c0.1,-0.1 0.4,-0.1 0.6,-0.1c1.4,0 2.8,-0.3 3.9,-1.3c0.1,-0.1 0.4,-0.2 0.6,-0.2c3.7,0.2 7.4,0.4 11,1.3c1.6,0.4 3.1,0.9 4.4,1.8c0.9,0.6 1.7,1.3 1.9,2.5c0.2,0.9 -0.1,1.7 -0.7,2.3c-0.9,1.1 -2.1,1.8 -3.5,2.2c-1.4,0.5 -3,0.9 -4.8,1.4z" id="svg_6"/>
  </g>
 </g>
</svg>